<svg xmlns="http://www.w3.org/2000/svg" xmlns:xlink="http://www.w3.org/1999/xlink" width="500" zoomAndPan="magnify" viewBox="0 0 375 374.999991" height="500" preserveAspectRatio="xMidYMid meet" version="1.0"><defs><clipPath id="aa0f1de09d"><path d="M 26 2.390625 L 188 2.390625 L 188 281 L 26 281 Z M 26 2.390625 " clip-rule="nonzero"/></clipPath><clipPath id="ef96a08964"><path d="M 187 2.390625 L 348.988281 2.390625 L 348.988281 281 L 187 281 Z M 187 2.390625 " clip-rule="nonzero"/></clipPath><clipPath id="62542c27db"><path d="M 26 187 L 348.988281 187 L 348.988281 372.890625 L 26 372.890625 Z M 26 187 " clip-rule="nonzero"/></clipPath></defs><g clip-path="url(#aa0f1de09d)"><path fill="#a6a6a6" d="M 26.570312 280.507812 L 187.320312 187.496094 L 187.320312 1.824219 L 26.570312 94.835938 Z M 26.570312 280.507812 " fill-opacity="1" fill-rule="nonzero"/></g><g clip-path="url(#ef96a08964)"><path fill="#005732" d="M 348.425781 280.507812 L 187.320312 187.496094 L 187.320312 1.824219 L 348.425781 94.835938 Z M 348.425781 280.507812 " fill-opacity="1" fill-rule="nonzero"/></g><g clip-path="url(#62542c27db)"><path fill="#000000" d="M 187.320312 187.496094 L 26.570312 280.507812 L 187.320312 373.167969 L 348.425781 280.507812 Z M 187.320312 187.496094 " fill-opacity="1" fill-rule="nonzero"/></g><path fill="#005732" d="M 119.933594 226.457031 L 187.320312 187.496094 L 187.320312 109.578125 L 119.933594 148.539062 Z M 119.933594 226.457031 " fill-opacity="1" fill-rule="nonzero"/><path fill="#000000" d="M 255.0625 226.457031 L 187.320312 187.496094 L 187.320312 109.578125 L 255.0625 148.539062 Z M 255.0625 226.457031 " fill-opacity="1" fill-rule="nonzero"/><path fill="#a6a6a6" d="M 187.320312 187.496094 L 119.933594 226.457031 L 187.320312 265.765625 L 255.0625 226.457031 Z M 187.320312 187.496094 " fill-opacity="1" fill-rule="nonzero"/></svg>